<svg viewBox="0 0 16 16" fill="none" xmlns="http://www.w3.org/2000/svg">
<path d="M13.3721 14.4715H2.63687V11.8704L6.47151 7.19105C7.29385 6.19887 8.26816 5.01898 8.92067 4.27262C7.91061 4.30837 6.4 4.33072 5.16201 4.33072H3.01229V1.37653H13.3408V4.38435L9.50615 8.6525C8.6838 9.64468 7.22682 11.2402 6.62793 11.8927C7.59777 11.933 9.58212 11.8927 10.8156 11.8927L13.381 11.8302V14.4715H13.3721Z" fill="url(#paint0_linear_239_948)"/>
<path d="M13.3542 4.3799L9.50168 8.67487C8.67933 9.66705 7.28045 11.1777 6.68156 11.8346L2.63687 11.8972L6.43575 7.22235C7.2581 6.23018 8.55419 4.63018 9.15307 3.97766L13.3542 4.3799Z" fill="url(#paint1_linear_239_948)"/>
<path d="M13.3721 11.8346V14.686H2.63687V11.8703L13.3721 11.8346Z" fill="url(#paint2_linear_239_948)"/>
<path d="M3.02124 4.40221V1.34076L13.3542 1.35864V4.38433L3.02124 4.40221Z" fill="url(#paint3_linear_239_948)"/>
<defs>
<linearGradient id="paint0_linear_239_948" x1="8.86392" y1="1.47858" x2="8.02079" y2="9.55868" gradientUnits="userSpaceOnUse">
<stop offset="0.3" stop-color="#00C65E"/>
<stop offset="1" stop-color="#006AC6"/>
</linearGradient>
<linearGradient id="paint1_linear_239_948" x1="3.28055" y1="12.5396" x2="12.3954" y2="3.42479" gradientUnits="userSpaceOnUse">
<stop stop-color="#002891" stop-opacity="0"/>
<stop offset="1" stop-color="#002891"/>
</linearGradient>
<linearGradient id="paint2_linear_239_948" x1="12.5293" y1="8.75163" x2="5.87038" y2="15.4106" gradientUnits="userSpaceOnUse">
<stop offset="0.5145" stop-color="#00C65E"/>
<stop offset="1" stop-color="#006AC6"/>
</linearGradient>
<linearGradient id="paint3_linear_239_948" x1="5.58653" y1="-1.62538" x2="9.40901" y2="4.99534" gradientUnits="userSpaceOnUse">
<stop offset="0.5413" stop-color="#00C65E"/>
<stop offset="0.636" stop-color="#00BF65"/>
<stop offset="1" stop-color="#006AC6"/>
</linearGradient>
</defs>
</svg>
